<?xml version="1.0" encoding="UTF-8"?><svg id="Camada_2" xmlns="http://www.w3.org/2000/svg" viewBox="0 0 128.93 22"><defs><style>.cls-1{fill:#fff;}.cls-1,.cls-2{stroke-width:0px;}.cls-2{fill:#8162ff;}</style></defs><g id="Camada_1-2"><path class="cls-1" d="M71.6,8.33v-3.87s-2.54,0-2.54,0v5.11s2.54-1.24,2.54-1.24ZM74.64,10.48v7.54c0,1.79-.91,2.65-2.81,2.65h-5.79s0-19.16,0-19.16h6.04c1.6,0,2.56.94,2.56,2.62v4.03c0,1.24-.39,1.99-1.35,2.32h1.35ZM71.6,17.69v-6.16s-2.54,1.27-2.54,1.27v4.89s2.54,0,2.54,0Z"/><path class="cls-1" d="M85.51,20.67h-3.14s0-8.12,0-8.12l-2.32,1.19v6.93s-3.14,0-3.14,0V4.13c0-1.68.94-2.62,2.54-2.62h3.5c1.6,0,2.56.94,2.56,2.62v16.54ZM82.37,9.18v-4.64s-2.31,0-2.31,0v5.77s2.31-1.13,2.31-1.13Z"/><path class="cls-1" d="M93.3,9.24v-4.69s-2.31,0-2.31,0v5.85s2.31-1.16,2.31-1.16ZM96.44,11.01l-2.32,1.19,3.58,8.48h-3.28s-2.98-7.1-2.98-7.1l-.47.25v6.85s-3.14,0-3.14,0V1.51s6.04,0,6.04,0c1.6,0,2.56.94,2.56,2.62v6.88Z"/><path class="cls-1" d="M104.25,8.33v-3.87h-2.54s0,5.11,0,5.11l2.54-1.24ZM107.28,10.48v7.54c0,1.79-.91,2.65-2.81,2.65h-5.79s0-19.16,0-19.16h6.04c1.6,0,2.56.94,2.56,2.62v4.03c0,1.24-.39,1.99-1.35,2.32h1.35ZM104.25,17.69v-6.16l-2.54,1.27v4.89h2.54Z"/><path class="cls-1" d="M117.14,20.67h-7.58s0-19.16,0-19.16h7.58v3.07h-4.44s0,4.94,0,4.94l4.44-2.24v3.42s-4.44,2.26-4.44,2.26v4.64h4.44v3.07Z"/><path class="cls-1" d="M124.52,9.24v-4.69s-2.32,0-2.32,0v5.85l2.32-1.16ZM127.66,11.01l-2.32,1.19,3.58,8.48h-3.28s-2.98-7.1-2.98-7.1l-.47.25v6.85s-3.14,0-3.14,0V1.51s6.04,0,6.04,0c1.6,0,2.56.94,2.56,2.62v6.88Z"/><path class="cls-2" d="M2,8.91c.85.63,1.88.97,2.94.97,1.35,0,2.57-.54,3.46-1.41l2.01,1.34.71-.48.31-1.11s.03-.09.04-.14l-1.95-1.3c.4-.98.47-2.06.2-3.09-.27-1.02-.85-1.93-1.68-2.6C7.23.43,6.21.05,5.16,0c-1.06-.05-2.1.25-2.98.84-.88.59-1.54,1.45-1.89,2.45s-.38,2.08-.07,3.09c.31,1.01.94,1.9,1.79,2.53ZM2.73,2.73c.59-.59,1.38-.91,2.21-.91.83,0,1.62.33,2.21.92.59.59.92,1.38.92,2.21,0,.83-.33,1.62-.92,2.21-.59.59-1.38.91-2.21.91s-1.62-.33-2.21-.92c-.59-.59-.92-1.38-.92-2.21,0-.83.33-1.62.92-2.21Z"/><path class="cls-2" d="M33.94,8.14v-4.03c0-1.68-.96-2.62-2.56-2.62h-1.22s-.06,0-.06,0l-1.85.15c-.98.1-1.95.33-2.91.57-1.67.43-3.29,1.04-4.8,1.89l-6.2,3.45c-.23.13-.44.3-.6.51-.16.21-.29.45-.36.71l-.51,1.83-4.45,2.97c-.92-.92-2.18-1.43-3.48-1.43-1.06,0-2.09.34-2.94.97-.85.63-1.48,1.51-1.79,2.52-.31,1.01-.29,2.09.06,3.09.35,1,1.01,1.85,1.89,2.45.88.59,1.92.89,2.97.85,1.06-.04,2.07-.42,2.9-1.08.82-.66,1.42-1.57,1.69-2.59.27-1.02.2-2.1-.19-3.08l15.8-10.52v11.64s0,1.01,0,1.01l-7.66-5.13-3.36,2.25h.02s6.2,3.46,6.2,3.46c1.49.83,3.16,1.45,4.8,1.88h0s.04.01.07.02c0,0,.01,0,.02,0h0c1.32.34,2.76.66,4.12.81h0s0,0,0,0h0s1.58,0,1.58,0c1.9,0,2.81-.86,2.81-2.65v-7.54s-1.35,0-1.35,0c.96-.33,1.35-1.08,1.35-2.32ZM7.17,19.25c-.59.59-1.38.92-2.21.91-.83,0-1.62-.33-2.21-.92-.59-.59-.92-1.38-.92-2.21,0-.83.33-1.62.92-2.21.59-.59,1.38-.91,2.21-.91.83,0,1.62.33,2.21.92.59.59.92,1.38.92,2.21,0,.83-.33,1.62-.92,2.21ZM30.91,17.66h-2.54s0-4.89,0-4.89l2.54-1.27v6.16ZM30.91,8.3l-2.54,1.24v-5.08s2.54,0,2.54,0v3.84Z"/><path class="cls-2" d="M44.81,20.67h-3.14s0-8.12,0-8.12l-2.32,1.19v6.93s-3.14,0-3.14,0V4.13c0-1.68.94-2.62,2.54-2.62h3.5c1.6,0,2.56.94,2.56,2.62v16.54ZM41.67,9.19v-4.64s-2.31,0-2.31,0v5.77s2.31-1.13,2.31-1.13Z"/><path class="cls-2" d="M54.67,20.67h-7.58s0-19.16,0-19.16h7.58v3.07h-4.44s0,4.94,0,4.94l4.44-2.24v3.42s-4.44,2.26-4.44,2.26v4.64h4.44v3.07Z"/></g></svg>